<svg width="303" height="230" viewBox="0 0 303 230" fill="none"
    xmlns="http://www.w3.org/2000/svg">
    <path d="M55.8657 112.7C55.7473 113.862 78.5907 157.135 79.0405 156.993C79.4902 156.85 95.7765 154.076 95.7765 154.076L105.766 142.861C105.766 142.861 67.3702 105.492 66.163 105.492C64.9083 105.468 56.0077 111.159 55.8657 112.7Z" fill="#014EAC"/>
    <path d="M235.275 120.786C235.275 120.786 249.904 119.956 260.154 119.126C271.753 118.177 283.518 115.569 283.518 115.569C283.518 115.569 283.376 110.305 283.802 109.357C284.536 107.697 287.874 105.278 288.702 105.278C289.531 105.278 293.815 110.163 295.875 114.004C298.408 118.699 296.466 122.256 291.188 124.745C281.127 129.488 259.254 136.672 221.095 141.035C162.934 147.698 235.275 120.786 235.275 120.786Z" fill="#006CA8"/>
    <path d="M121.034 157.894L79.6084 173.14C79.6084 173.14 119.377 177.1 135.45 173.14C144.801 170.84 174.888 160.194 219.13 135.368C262.71 110.898 278.405 93.3515 281.245 89.8423C284.725 85.5742 286.169 80.9742 283.826 78.3185C281.743 75.9711 275.754 75.9711 275.754 75.9711L121.034 157.894Z" fill="#B0B0B0"/>
    <path d="M70.0452 162.897C70.0452 162.897 73.7616 159.269 78.0699 156.021C88.6986 148.006 96.8891 144.449 96.8891 144.449L122.739 127.401C122.739 127.401 228.718 73.4103 235.133 70.6124C241.548 67.8144 247.797 65.4196 255.065 66.2021C261.929 66.9371 265.03 70.2804 265.03 70.2804L269.386 75.0464C269.386 75.0464 274.168 74.667 279.399 76.0897C282.784 76.9907 283.85 78.3423 283.85 78.3423C283.85 78.3423 245.264 108.195 215.462 125.789C185.659 143.382 135.9 171.148 114.856 173.282C93.8117 175.416 71.3945 172.144 71.3945 172.144L70.0452 162.897Z" fill="#C8C8C8"/>
    <path d="M26.3707 168.872C26.5601 172.287 28.5248 172.287 40.1477 172.287C52.1493 172.287 75.5845 172.642 77.3599 172.642C79.159 172.642 86.3079 169.773 86.6629 164.58C86.9233 160.81 85.9528 159.032 83.4436 159.032C80.9343 159.032 77.3599 160.834 73.5961 161.545C69.8322 162.257 38.5143 164.96 34.5848 165.315C30.679 165.624 26.205 165.624 26.3707 168.872Z" fill="#006CA8"/>
    <path d="M225.38 143.216C225.38 143.216 231.156 137.028 236.766 132.072C242.4 127.116 250.235 121.663 252.579 121.521C257.408 121.212 264.794 123.631 266.971 132.001C269.149 140.371 264.083 144.853 261.929 146.323C258.899 148.386 244.436 158.581 235.109 156.519C223.084 153.91 225.38 143.216 225.38 143.216Z" fill="#9A9A9A"/>
    <path d="M252.673 125.22C250.188 126.334 248.271 130.436 251.585 136.909C254.875 143.383 259.065 144.046 261.456 142.41C264.06 140.632 263.823 134.752 262 130.863C259.964 126.453 255.419 123.987 252.673 125.22Z" fill="#5E6269"/>
    <path d="M165.727 118.438C163.028 119.244 163.005 122.611 163.265 123.773C163.975 127.14 168.899 126.642 168.899 126.642C168.899 126.642 170.509 123.773 169.633 121.118C169.183 119.719 168.023 117.751 165.727 118.438Z" fill="#3B5361"/>
    <path d="M10.463 120.643C7.7881 120.857 7.43302 134.799 7.59872 138.213C7.7881 141.628 9.75286 144.118 16.1916 144.853C22.6304 145.588 121.579 148.267 132.492 148.267C143.404 148.267 170.248 142.885 170.248 142.885C170.248 142.885 183.836 135.368 187.955 132.665C192.074 129.986 200.785 125.243 195.743 121.544C193.802 120.122 154.838 125.148 111.921 128.539C66.6837 132.096 43.3906 134.823 19.9554 133.922C19.9318 133.922 12.5935 120.477 10.463 120.643Z" fill="#006CA8"/>
    <path d="M131.071 156.021C135.498 164.177 146.316 163.039 153.039 159.862C159.761 156.708 168.78 152.44 169.775 151.61C170.769 150.78 173.751 142.268 168.544 133.471C163.336 124.674 156.518 124.722 154.554 124.959C152.565 125.196 141.558 132.57 137.131 136.222C132.302 140.205 126.692 147.911 131.071 156.021Z" fill="#9A9A9A"/>
    <path d="M154.79 128.824C151.145 129.938 151.618 138.213 154.79 143.406C158.081 148.765 162.2 151.373 165.348 149.879C168.496 148.362 168.094 142.339 165.348 136.554C162.46 130.46 157.939 127.852 154.79 128.824Z" fill="#5E6269"/>
    <path d="M265.219 70.3278C265.219 70.3278 260.793 70.1619 253.242 74.833C245.69 79.5041 243.347 84.8392 245.406 86.333C247.679 87.9691 252.082 83.1557 258.639 79.7887C264.012 77.0145 269.338 74.9753 269.338 74.9753L265.219 70.3278Z" fill="#3B5361"/>
    <path d="M180.782 110.779C178.77 111.325 177.989 113.672 178.344 116.02C178.699 118.367 180.498 119.434 182.131 118.912C183.741 118.367 184.83 117.015 184.641 114.312C184.475 111.704 183.126 110.163 180.782 110.779Z" fill="#3B5361"/>
    <path d="M195.79 102.646C193.139 103.547 193.02 105.824 193.21 107.555C193.494 110.021 195.364 111.254 197.163 110.803C198.962 110.353 199.767 108.029 199.388 105.871C199.033 103.713 197.778 101.982 195.79 102.646Z" fill="#3B5361"/>
    <path d="M210.822 94.9165C208.881 95.4856 207.886 97.3351 208.147 100.038C208.36 102.362 209.97 104.567 211.911 103.737C213.899 102.86 214.799 101.2 214.373 98.0938C214.041 95.9124 212.881 94.3 210.822 94.9165Z" fill="#3B5361"/>
    <path d="M225.333 87.9691C223.013 88.8464 222.445 90.5773 222.445 92.6639C222.445 95.2959 224.315 97.1453 226.35 96.5763C228.883 95.8649 229.428 92.8773 229.238 91.3598C228.931 89.2021 227.416 87.1866 225.333 87.9691Z" fill="#3B5361"/>
    <path d="M106.026 151.302C104.298 151.895 103.304 153.721 103.659 156.21C104.014 158.7 105.884 159.174 107.233 159.103C108.559 159.032 110.003 156.993 109.766 154.147C109.601 152.061 107.778 150.686 106.026 151.302Z" fill="#3B5361"/>
    <path d="M228.694 77.4175C226.824 78.2949 152.187 118.201 150.34 119.268C148.494 120.335 148.257 121.521 148.92 122.659C149.583 123.797 152.045 122.801 153.441 122.137C154.838 121.473 229.736 82.0887 230.801 81.4485C231.842 80.8082 233.286 79.433 232.387 77.6546C231.795 76.4454 230.043 76.801 228.694 77.4175Z" fill="#E0E0DF"/>
    <path d="M235.89 73.5763C234.636 74.2876 233.5 75.4258 234.139 76.7773C234.778 78.1289 236.435 78.034 237.784 77.3227C239.134 76.6351 240.08 75.5206 239.583 74.1691C239.086 72.8175 237.24 72.8175 235.89 73.5763Z" fill="#E0E0DF"/>
</svg>
